HIERARCHY
ROOT hip
{
	OFFSET 0.000000 0.000000 0.000000 
	CHANNELS 6 Xposition Yposition Zposition Xrotation Zrotation Yrotation
	JOINT abdomen
	{
		OFFSET 0.000000 3.402643 0.000000 
		CHANNELS 3 Xrotation Zrotation Yrotation
		JOINT chest
		{
			OFFSET 0.000000 8.438565 -0.680529 
			CHANNELS 3 Xrotation Zrotation Yrotation
			JOINT neck
			{
				OFFSET 0.000000 10.207942 -0.272212 
				CHANNELS 3 Xrotation Zrotation Yrotation
				JOINT head
				{
					OFFSET 0.000000 3.130431 0.000000 
					CHANNELS 3 Xrotation Zrotation Yrotation
					End Site
					{
						OFFSET 0.000000 3.130435 0.000000 
					}
				}
			}
			JOINT lCollar
			{
				OFFSET 3.470700 6.669187 -0.816635 
				CHANNELS 3 Yrotation Zrotation Xrotation
				JOINT lShldr
				{
					OFFSET 3.198488 0.000000 0.000000 
					CHANNELS 3 Zrotation Yrotation Xrotation
					JOINT lForeArm
					{
						OFFSET 10.139888 0.000000 0.000000 
						CHANNELS 3 Yrotation Zrotation Xrotation
						JOINT lHand
						{
							OFFSET 8.370511 0.000000 0.000000 
							CHANNELS 3 Zrotation Yrotation Xrotation
							End Site
							{
								OFFSET 4.083176 0.000000 0.000000 
							}
						}
					}
				}
			}
			JOINT rCollar
			{
				OFFSET -3.470700 6.669187 -0.816635 
				CHANNELS 3 Yrotation Zrotation Xrotation
				JOINT rShldr
				{
					OFFSET -3.198488 0.000000 0.000000 
					CHANNELS 3 Zrotation Yrotation Xrotation
					JOINT rForeArm
					{
						OFFSET -10.139888 0.000000 0.000000 
						CHANNELS 3 Yrotation Zrotation Xrotation
						JOINT rHand
						{
							OFFSET -8.370511 0.000000 0.000000 
							CHANNELS 3 Zrotation Yrotation Xrotation
							End Site
							{
								OFFSET -4.083176 0.000000 0.000000 
							}
						}
					}
				}
			}
		}
	}
	JOINT lThigh
	{
		OFFSET 5.308129 -1.633274 1.361059 
		CHANNELS 3 Xrotation Zrotation Yrotation
		JOINT lShin
		{
			OFFSET -2.041588 -20.007561 0.000000 
			CHANNELS 3 Xrotation Zrotation Yrotation
			JOINT lFoot
			{
				OFFSET 0.000000 -19.190928 -1.224953 
				CHANNELS 3 Xrotation Yrotation Zrotation
				End Site
				{
					OFFSET 0.000000 -2.449906 4.627600 
				}
			}
		}
	}
	JOINT rThigh
	{
		OFFSET -5.308129 -1.633274 1.361059 
		CHANNELS 3 Xrotation Zrotation Yrotation
		JOINT rShin
		{
			OFFSET 2.041588 -20.007561 0.000000 
			CHANNELS 3 Xrotation Zrotation Yrotation
			JOINT rFoot
			{
				OFFSET 0.000000 -19.190928 -1.224953 
				CHANNELS 3 Xrotation Yrotation Zrotation
				End Site
				{
					OFFSET 0.000000 -2.449906 4.627600 
				}
			}
		}
	}
}
MOTION
Frames: 15
Frame Time: 0.016667
25.166019 48.781662 113.912056 -3.525390 -1.230469 -5.556850 0.000000 0.000000 0.000000 -0.712891 4.208984 0.117188 -8.095703 -1.269531 1.064237 4.208984 -3.515625 2.186901 2.685547 -11.210938 2.999946 -2.460938 9.628906 6.222337 1.123047 4.013672 2.070312 4.404297 -3.398438 -3.496093 -4.423828 5.537109 2.353516 -6.123047 5.136719 5.371094 -4.267578 -2.207031 2.119516 -3.710938 3.437500 -2.567774 11.696441 7.704357 6.496216 1.315412 -2.672545 -0.032502 0.886073 -0.604969 1.827486 10.500749 -10.189668 -4.058167 0.370480 3.819460 -0.052360 2.891882 1.671287 -4.618598 
25.169125 48.773903 113.893425 -3.525390 -1.230469 -5.556850 0.000000 0.000000 0.000000 -0.888672 4.208984 0.107422 -8.271484 -1.269531 1.064453 4.208984 -3.515625 2.011120 2.685547 -11.035156 2.988281 -2.460938 9.628906 6.222337 0.947266 4.023438 2.089844 4.033203 -3.076172 -3.115234 -4.248047 5.371094 2.324219 -6.132813 4.785156 5.547770 -4.267578 -2.207031 2.119516 -3.710938 3.437500 -2.567774 11.492912 7.684982 6.502819 1.315416 -2.672544 -0.032502 0.871117 -0.613142 2.011991 10.286762 -10.151348 -4.057616 0.370462 3.819462 -0.052360 3.053207 1.548725 -4.671403 
25.169125 48.769245 113.876366 -3.349609 -1.230469 -5.556851 0.000000 0.000000 0.000000 -0.888672 4.208984 0.283203 -8.271485 -1.289063 0.888672 4.208984 -3.515625 1.835339 2.509766 -11.044922 2.958984 -2.460938 9.628906 6.222337 0.771484 4.023438 2.099610 3.652344 -2.744141 -2.744608 -4.248047 5.371094 2.324219 -6.132813 4.785156 5.547770 -4.091797 -2.216797 2.129284 -3.710938 3.437500 -2.567774 11.342466 7.869310 6.326100 1.314994 -2.672763 -0.012967 0.680647 -0.602406 2.005764 10.072595 -10.111954 -3.888305 0.361374 3.997255 -0.025745 3.349677 1.169280 -4.791771 
25.169125 48.764591 113.859283 -3.349609 -1.230469 -5.556851 0.000000 0.000000 0.000000 -1.064453 4.208984 0.274154 -8.271485 -1.289063 0.888672 4.208984 -3.515625 1.659558 2.509766 -11.044922 2.958984 -2.285156 9.628906 6.220703 0.595703 4.023438 2.118455 3.281250 -2.412109 -2.373458 -4.248047 5.371094 2.324219 -6.132812 4.609375 5.723441 -4.091797 -2.216797 2.129284 -3.525390 3.271484 -2.382255 11.342467 7.869310 6.326099 1.314993 -2.672766 -0.012967 0.854616 -0.556843 2.209906 10.072595 -10.111955 -3.888305 0.361374 3.997255 -0.025745 3.349677 1.169280 -4.791771 
25.166019 48.763039 113.840675 -3.173828 -1.230469 -5.566407 0.000000 0.000000 0.000000 -1.064453 4.208984 0.274154 -8.271485 -1.289063 0.888672 4.208984 -3.515625 1.659558 2.509766 -11.044922 2.958984 -2.285156 9.804688 6.044921 0.595703 4.023438 2.118455 3.105469 -2.431641 -2.011704 -4.248047 5.371094 2.324219 -6.308594 4.785156 5.733319 -4.091797 -2.216797 2.129284 -3.515625 3.095703 -2.197266 11.135185 7.847983 6.163966 1.176878 -2.736337 -0.023594 0.883966 -0.922262 2.261978 9.989008 -10.204777 -3.870612 0.351025 3.997883 -0.046670 3.371836 1.179860 -4.777611 
25.162918 48.764591 113.823601 -3.173828 -1.230469 -5.566407 0.000000 0.000000 0.000000 -1.064453 4.208984 0.098373 -8.271485 -1.289063 0.888672 4.208984 -3.515625 1.659558 2.324219 -11.054688 2.921795 -2.285156 9.804688 6.044921 0.419922 4.033203 2.137985 3.095703 -2.255860 -1.835938 -4.248047 5.546875 2.333985 -6.484375 4.785156 5.733318 -4.267578 -2.207031 2.119516 -3.496094 2.919922 -2.021484 11.133523 7.847256 5.985478 1.176444 -2.736525 -0.023586 1.066658 -0.727331 2.157008 9.989008 -10.204775 -3.870612 0.351025 3.997883 -0.046670 3.371837 1.179860 -4.777611 
25.159813 48.766140 113.803429 -3.173828 -1.230469 -5.566407 0.000000 0.000000 0.000000 -0.888672 4.208984 0.107422 -8.271485 -1.289063 0.888672 4.208984 -3.515625 1.659558 2.324219 -10.878907 2.919922 -2.285156 9.980468 5.878907 0.419922 4.033203 2.137985 3.095703 -2.255860 -1.660156 -4.248047 5.546875 2.333985 -6.484375 4.785156 5.733318 -4.267578 -2.207031 2.119516 -3.320313 2.929688 -1.835437 11.133523 7.847256 5.985478 0.963112 -2.621759 -0.011414 1.054426 -0.697422 2.147134 9.989008 -10.204776 -3.870612 0.351025 3.997883 -0.046670 3.371837 1.179860 -4.777611 
25.158262 48.770798 113.781700 -3.173828 -1.230469 -5.390625 0.000000 0.000000 0.000000 -0.888672 4.208984 -0.068359 -8.271485 -1.289063 0.888672 4.208984 -3.515625 1.659558 2.148438 -11.064452 2.890625 -2.294922 10.156250 5.664063 0.419922 4.033203 2.137985 3.095703 -2.255860 -1.660156 -4.072266 5.556641 2.313469 -6.484375 4.785156 5.733318 -4.443359 -2.207031 2.109751 -3.496094 2.919922 -1.669922 11.140741 7.850881 5.806611 0.963569 -2.621591 -0.011422 1.235957 -0.703310 2.352888 9.772590 -10.164268 -3.860340 0.360670 3.997031 -0.045946 3.162432 1.144088 -4.625666 
25.156710 48.773903 113.759972 -3.173828 -1.230469 -5.390625 0.000000 0.000000 0.000000 -0.888672 4.208984 -0.068359 -8.271485 -1.289063 0.888672 4.208984 -3.515625 1.659558 2.148438 -11.064452 2.890625 -2.119141 10.332031 5.673828 0.244141 4.033200 2.157518 3.447266 -2.226540 -1.680047 -3.720703 5.566406 2.285156 -6.484375 4.619141 5.908989 -4.619141 -2.207031 2.099609 -3.496094 2.919922 -1.669922 11.127459 7.849019 5.628167 0.817987 -2.680747 -0.001868 1.225125 -0.689916 2.534680 9.772380 -10.163692 -4.048877 0.526842 3.978535 -0.043357 3.035056 1.365818 -4.735184 
25.156710 48.778561 113.735146 -3.173828 -1.230469 -5.390625 0.000000 0.000000 0.000000 -0.712891 4.208984 -0.234375 -8.271485 -1.289063 0.888672 4.208984 -3.515625 1.835339 1.972656 -11.250000 3.039015 -1.933594 10.507813 5.898438 0.244141 4.033200 2.157518 3.632813 -2.392578 -2.216797 -3.535156 5.566406 2.440459 -6.494141 4.443358 6.259766 -4.619141 -2.207031 2.099609 -3.671875 2.910156 -1.679688 11.125623 7.848173 5.449687 0.963600 -2.621580 -0.011423 1.436461 -0.909360 2.641312 9.548262 -10.115893 -3.868428 0.526858 3.978660 -0.033598 3.404233 1.520314 -4.856170 
25.155159 48.784767 113.705658 -2.998047 -1.230480 -5.390787 0.000000 0.000000 0.000000 -0.712891 4.208984 -0.234375 -8.271485 -1.289063 0.888672 4.033203 -3.505859 1.845703 1.972656 -11.591798 3.058603 -1.748047 10.859376 6.435547 0.244141 4.033200 2.157518 4.169922 -2.539063 -2.949219 -3.359375 5.576172 2.421875 -6.503906 4.443359 6.787867 -4.619141 -2.207031 2.099609 -3.847656 2.900391 -1.689453 10.913026 7.819660 5.444761 0.963603 -2.621579 -0.011423 1.414278 -0.906928 2.829244 9.462283 -10.205057 -4.038661 0.867734 3.928717 -0.008221 3.052384 1.537731 -4.654573 
25.153605 48.790974 113.669968 -2.822266 -1.230469 -5.390835 0.000000 0.000000 0.000000 -0.712891 4.208984 -0.410156 -8.447266 -1.269531 1.074002 3.857422 -3.505860 2.030653 1.972656 -11.943359 3.068427 -1.728516 11.210937 7.490234 0.058594 4.042969 2.167969 4.892579 -2.841797 -3.867672 -3.359375 5.751953 2.431641 -6.337891 4.443359 7.470703 -4.443359 -2.207031 2.109751 -4.189453 2.705079 -1.708984 10.655584 7.876172 5.275913 1.323236 -2.657768 -0.023406 1.431370 -1.007879 2.813216 9.028239 -10.112961 -4.027094 1.181606 3.846146 0.005255 2.867930 1.436384 -4.328228 
25.152054 48.797180 113.624954 -2.646484 -1.054688 -5.410336 0.000000 0.000000 0.000000 -0.712891 4.033203 -0.410156 -8.623046 -1.269531 1.074002 3.505859 -3.505859 2.225965 1.972656 -12.294922 3.078251 -1.708984 11.552734 8.720703 0.058594 4.042969 2.167969 5.625000 -3.144531 -5.147020 -3.544922 5.742188 2.451172 -6.005859 4.443359 8.506618 -4.091797 -2.216797 2.129284 -4.521484 2.333984 -1.728516 9.908540 7.673630 5.065561 1.646909 -2.691519 0.132704 1.412302 -1.019922 2.975176 8.480340 -10.090806 -4.202027 1.540773 3.906788 0.040581 2.862218 1.301207 -4.562012 
25.152054 48.806492 113.567558 -2.294922 -1.054688 -5.234375 0.000000 0.000000 0.000000 -0.712891 4.033203 -0.585937 -8.798827 -1.240234 1.249789 3.144531 -3.505860 2.606825 2.158203 -12.636720 3.127136 -2.031250 12.080078 10.283202 -0.292969 4.042972 2.206341 6.347656 -3.457031 -6.591796 -3.544922 5.742188 2.451172 -5.507812 4.619141 9.717583 -3.740235 -2.226563 2.158203 -4.687500 2.138672 -1.737917 9.001012 7.654812 4.886157 2.396376 -2.797615 0.047107 1.265834 -1.257036 3.273305 8.055271 -10.204569 -4.377410 1.755384 4.008023 0.055788 2.860291 1.361531 -4.540695 
25.155159 48.815800 113.491508 -1.943359 -1.054688 -5.068539 0.000000 0.000000 0.000000 -0.888672 4.033203 -0.595703 -8.974609 -1.210938 1.435341 2.617188 -3.330078 2.968183 2.158203 -12.988282 3.146726 -2.539062 12.597656 11.672053 -0.644531 4.052734 2.236328 7.060547 -3.583984 -7.685546 -3.720703 5.908203 2.479464 -4.658203 4.970704 11.075066 -3.388672 -2.236328 2.178115 -4.853516 1.953125 -1.923828 7.982222 7.662317 4.889820 3.209152 -2.723851 -0.149221 1.086161 -1.199347 3.096841 7.466438 -9.956917 -4.689919 1.902062 3.940621 0.066577 2.874935 1.521187 -4.671106 
